<mxfile host="Electron" modified="2024-04-11T00:36:16.773Z" agent="Mozilla/5.0 (Windows NT 10.0; Win64; x64) AppleWebKit/537.36 (KHTML, like Gecko) draw.io/24.1.0 Chrome/120.0.6099.109 Electron/28.1.0 Safari/537.36" etag="Hkej7D3nebL47i2qy_TN" version="24.1.0" type="device">
  <diagram name="Página-1" id="jx7eCfIzhXeJLP0XQDai">
    <mxGraphModel dx="2856" dy="1186" grid="1" gridSize="10" guides="1" tooltips="1" connect="1" arrows="1" fold="1" page="1" pageScale="1" pageWidth="827" pageHeight="1169" background="#CCE5FF" math="0" shadow="0">
      <root>
        <mxCell id="0" />
        <mxCell id="1" parent="0" />
        <mxCell id="AJ5_jYrUr9q8fk18aoDG-1" value="&lt;font style=&quot;font-size: 16px;&quot; color=&quot;#000000&quot; face=&quot;Comic Sans MS&quot;&gt;&lt;b&gt;14&lt;br&gt;Dada una lista de 7 números informar cual es el primer, el segundo, el anteúltimo y el último número impar ingresado.&lt;br&gt;&lt;br&gt;Ejemplo 8, 4, -5, 7, 9, 18, 5 se informa: Primer impar: -5, Segundo impar: 7, Anteúltimo impar: 9 y Último impar: 5.&lt;/b&gt;&lt;/font&gt;" style="text;whiteSpace=wrap;html=1;fontFamily=Architects Daughter;fontSource=https%3A%2F%2Ffonts.googleapis.com%2Fcss%3Ffamily%3DArchitects%2BDaughter;" parent="1" vertex="1">
          <mxGeometry x="110" y="10" width="790" height="130" as="geometry" />
        </mxCell>
        <mxCell id="AJ5_jYrUr9q8fk18aoDG-33" value="" style="strokeWidth=2;html=1;shape=mxgraph.flowchart.start_2;whiteSpace=wrap;rounded=0;labelBackgroundColor=none;strokeColor=#000000;align=center;verticalAlign=middle;fontFamily=Helvetica;fontSize=12;fontColor=default;fillColor=#d5e8d4;" parent="1" vertex="1">
          <mxGeometry x="-655" y="1319" width="50" height="60" as="geometry" />
        </mxCell>
        <mxCell id="4o3jKFfFOQzMSp_FgS3m-52" value="" style="line;strokeWidth=2;direction=south;html=1;hachureGap=4;fontFamily=Architects Daughter;fontSource=https://fonts.googleapis.com/css?family=Architects+Daughter;strokeColor=#000000;container=0;" vertex="1" parent="1">
          <mxGeometry x="456.5" y="1330" width="10" height="50" as="geometry" />
        </mxCell>
        <mxCell id="4o3jKFfFOQzMSp_FgS3m-53" value="" style="line;strokeWidth=2;direction=south;html=1;hachureGap=4;fontFamily=Architects Daughter;fontSource=https://fonts.googleapis.com/css?family=Architects+Daughter;strokeColor=#000000;container=0;" vertex="1" parent="1">
          <mxGeometry x="456.5" y="1430" width="10" height="40" as="geometry" />
        </mxCell>
        <mxCell id="AJ5_jYrUr9q8fk18aoDG-3" value="" style="whiteSpace=wrap;html=1;rounded=0;labelBackgroundColor=none;strokeColor=#000000;strokeWidth=2;align=center;verticalAlign=middle;fontFamily=Helvetica;fontSize=12;fontColor=default;fillColor=#d5e8d4;container=0;" parent="1" vertex="1">
          <mxGeometry x="30" y="290" width="850" height="1040" as="geometry" />
        </mxCell>
        <mxCell id="AJ5_jYrUr9q8fk18aoDG-35" value="" style="strokeWidth=2;html=1;shape=mxgraph.flowchart.start_2;whiteSpace=wrap;rounded=0;labelBackgroundColor=none;strokeColor=#000000;align=center;verticalAlign=middle;fontFamily=Helvetica;fontSize=12;fontColor=default;fillColor=#d5e8d4;container=0;" parent="1" vertex="1">
          <mxGeometry x="441.5" y="170" width="50" height="60" as="geometry" />
        </mxCell>
        <mxCell id="AJ5_jYrUr9q8fk18aoDG-78" value="" style="group;aspect=fixed;" parent="1" vertex="1" connectable="0">
          <mxGeometry x="-770" y="1229" width="260" height="50" as="geometry" />
        </mxCell>
        <mxCell id="AJ5_jYrUr9q8fk18aoDG-76" value="" style="shape=trapezoid;perimeter=trapezoidPerimeter;whiteSpace=wrap;html=1;fixedSize=1;rounded=0;labelBackgroundColor=none;strokeColor=#0F140C;strokeWidth=2;align=center;verticalAlign=middle;fontFamily=Helvetica;fontSize=12;fontColor=default;fillColor=#d5e8d4;" parent="AJ5_jYrUr9q8fk18aoDG-78" vertex="1">
          <mxGeometry width="260" height="50" as="geometry" />
        </mxCell>
        <mxCell id="AJ5_jYrUr9q8fk18aoDG-77" value="&lt;b&gt;&lt;font color=&quot;#000000&quot; style=&quot;font-size: 14px;&quot; face=&quot;Comic Sans MS&quot;&gt;primer_impar, segundo_impar,&amp;nbsp;&lt;/font&gt;&lt;/b&gt;&lt;div&gt;&lt;b&gt;&lt;font color=&quot;#000000&quot; style=&quot;font-size: 14px;&quot; face=&quot;Comic Sans MS&quot;&gt;anteultimo_impar, ultimo_impar&lt;/font&gt;&lt;/b&gt;&lt;/div&gt;" style="text;strokeColor=none;align=center;fillColor=none;html=1;verticalAlign=middle;whiteSpace=wrap;rounded=0;fontFamily=Architects Daughter;fontSource=https://fonts.googleapis.com/css?family=Architects+Daughter;" parent="AJ5_jYrUr9q8fk18aoDG-78" vertex="1">
          <mxGeometry x="20" y="5" width="230" height="40" as="geometry" />
        </mxCell>
        <mxCell id="AJ5_jYrUr9q8fk18aoDG-81" value="" style="line;strokeWidth=2;direction=south;html=1;hachureGap=4;fontFamily=Architects Daughter;fontSource=https://fonts.googleapis.com/css?family=Architects+Daughter;strokeColor=#000000;container=0;" parent="1" vertex="1">
          <mxGeometry x="500" y="542" width="10" height="28" as="geometry" />
        </mxCell>
        <mxCell id="AJ5_jYrUr9q8fk18aoDG-82" value="" style="line;strokeWidth=2;direction=south;html=1;hachureGap=4;fontFamily=Architects Daughter;fontSource=https://fonts.googleapis.com/css?family=Architects+Daughter;strokeColor=#000000;container=0;" parent="1" vertex="1">
          <mxGeometry x="615" y="370" width="10" height="40" as="geometry" />
        </mxCell>
        <mxCell id="AJ5_jYrUr9q8fk18aoDG-80" value="" style="line;strokeWidth=2;direction=south;html=1;hachureGap=4;fontFamily=Architects Daughter;fontSource=https://fonts.googleapis.com/css?family=Architects+Daughter;strokeColor=#000000;container=0;" parent="1" vertex="1">
          <mxGeometry x="450" y="230" width="31.5" height="60" as="geometry" />
        </mxCell>
        <mxCell id="AJ5_jYrUr9q8fk18aoDG-83" value="" style="line;strokeWidth=2;direction=south;html=1;hachureGap=4;fontFamily=Architects Daughter;fontSource=https://fonts.googleapis.com/css?family=Architects+Daughter;strokeColor=#000000;" parent="1" vertex="1">
          <mxGeometry x="-643.5" y="1179" width="10" height="50" as="geometry" />
        </mxCell>
        <mxCell id="AJ5_jYrUr9q8fk18aoDG-79" value="" style="line;strokeWidth=2;direction=south;html=1;hachureGap=4;fontFamily=Architects Daughter;fontSource=https://fonts.googleapis.com/css?family=Architects+Daughter;strokeColor=#000000;" parent="1" vertex="1">
          <mxGeometry x="-643.5" y="1279" width="10" height="40" as="geometry" />
        </mxCell>
        <mxCell id="AJ5_jYrUr9q8fk18aoDG-92" value="" style="line;strokeWidth=2;html=1;perimeter=backbonePerimeter;points=[];outlineConnect=0;hachureGap=4;fontFamily=Architects Daughter;fontSource=https://fonts.googleapis.com/css?family=Architects+Daughter;strokeColor=#000000;container=0;" parent="1" vertex="1">
          <mxGeometry x="500" y="457" width="70" height="10" as="geometry" />
        </mxCell>
        <mxCell id="AJ5_jYrUr9q8fk18aoDG-88" value="" style="line;strokeWidth=2;html=1;perimeter=backbonePerimeter;points=[];outlineConnect=0;hachureGap=4;fontFamily=Architects Daughter;fontSource=https://fonts.googleapis.com/css?family=Architects+Daughter;strokeColor=#000000;container=0;" parent="1" vertex="1">
          <mxGeometry x="670" y="457" width="80" height="10" as="geometry" />
        </mxCell>
        <mxCell id="AJ5_jYrUr9q8fk18aoDG-95" value="" style="line;strokeWidth=2;direction=south;html=1;hachureGap=4;fontFamily=Architects Daughter;fontSource=https://fonts.googleapis.com/css?family=Architects+Daughter;strokeColor=#000000;container=0;" parent="1" vertex="1">
          <mxGeometry x="496" y="462" width="10" height="50" as="geometry" />
        </mxCell>
        <mxCell id="AJ5_jYrUr9q8fk18aoDG-96" value="&lt;font color=&quot;#000000&quot; size=&quot;1&quot; face=&quot;Comic Sans MS&quot;&gt;&lt;b style=&quot;font-size: 22px;&quot;&gt;I&lt;/b&gt;&lt;/font&gt;" style="text;strokeColor=none;align=center;fillColor=none;html=1;verticalAlign=middle;whiteSpace=wrap;rounded=0;fontFamily=Architects Daughter;fontSource=https%3A%2F%2Ffonts.googleapis.com%2Fcss%3Ffamily%3DArchitects%2BDaughter;container=0;" parent="1" vertex="1">
          <mxGeometry x="446" y="180" width="40" height="40" as="geometry" />
        </mxCell>
        <mxCell id="AJ5_jYrUr9q8fk18aoDG-97" value="&lt;font color=&quot;#000000&quot; size=&quot;1&quot; face=&quot;Comic Sans MS&quot;&gt;&lt;b style=&quot;font-size: 22px;&quot;&gt;F&lt;/b&gt;&lt;/font&gt;" style="text;strokeColor=none;align=center;fillColor=none;html=1;verticalAlign=middle;whiteSpace=wrap;rounded=0;fontFamily=Architects Daughter;fontSource=https://fonts.googleapis.com/css?family=Architects+Daughter;" parent="1" vertex="1">
          <mxGeometry x="-659.5" y="1330" width="40" height="40" as="geometry" />
        </mxCell>
        <mxCell id="AJ5_jYrUr9q8fk18aoDG-94" value="" style="line;strokeWidth=2;direction=south;html=1;hachureGap=4;fontFamily=Architects Daughter;fontSource=https://fonts.googleapis.com/css?family=Architects+Daughter;strokeColor=#000000;container=0;" parent="1" vertex="1">
          <mxGeometry x="740" y="462" width="10" height="778" as="geometry" />
        </mxCell>
        <mxCell id="4o3jKFfFOQzMSp_FgS3m-94" value="" style="line;strokeWidth=2;html=1;perimeter=backbonePerimeter;points=[];outlineConnect=0;hachureGap=4;fontFamily=Architects Daughter;fontSource=https://fonts.googleapis.com/css?family=Architects+Daughter;strokeColor=#000000;container=0;" vertex="1" parent="1">
          <mxGeometry x="400" y="615" width="56" height="10" as="geometry" />
        </mxCell>
        <mxCell id="4o3jKFfFOQzMSp_FgS3m-83" value="" style="line;strokeWidth=2;direction=south;html=1;hachureGap=4;fontFamily=Architects Daughter;fontSource=https://fonts.googleapis.com/css?family=Architects+Daughter;strokeColor=#000000;container=0;" vertex="1" parent="1">
          <mxGeometry x="395" y="620" width="10" height="60" as="geometry" />
        </mxCell>
        <mxCell id="4o3jKFfFOQzMSp_FgS3m-93" value="" style="line;strokeWidth=2;html=1;perimeter=backbonePerimeter;points=[];outlineConnect=0;hachureGap=4;fontFamily=Architects Daughter;fontSource=https://fonts.googleapis.com/css?family=Architects+Daughter;strokeColor=#000000;container=0;" vertex="1" parent="1">
          <mxGeometry x="555" y="615" width="55" height="10" as="geometry" />
        </mxCell>
        <mxCell id="4o3jKFfFOQzMSp_FgS3m-82" value="" style="line;strokeWidth=2;direction=south;html=1;hachureGap=4;fontFamily=Architects Daughter;fontSource=https://fonts.googleapis.com/css?family=Architects+Daughter;strokeColor=#000000;container=0;" vertex="1" parent="1">
          <mxGeometry x="600" y="620" width="10" height="120" as="geometry" />
        </mxCell>
        <mxCell id="4o3jKFfFOQzMSp_FgS3m-81" value="" style="line;strokeWidth=2;direction=south;html=1;hachureGap=4;fontFamily=Architects Daughter;fontSource=https://fonts.googleapis.com/css?family=Architects+Daughter;strokeColor=#000000;container=0;" vertex="1" parent="1">
          <mxGeometry x="395" y="710" width="10" height="30" as="geometry" />
        </mxCell>
        <mxCell id="4o3jKFfFOQzMSp_FgS3m-92" value="" style="line;strokeWidth=2;html=1;perimeter=backbonePerimeter;points=[];outlineConnect=0;hachureGap=4;fontFamily=Architects Daughter;fontSource=https://fonts.googleapis.com/css?family=Architects+Daughter;strokeColor=#000000;container=0;" vertex="1" parent="1">
          <mxGeometry x="397" y="733" width="213" height="10" as="geometry" />
        </mxCell>
        <mxCell id="4o3jKFfFOQzMSp_FgS3m-88" value="" style="line;strokeWidth=2;direction=south;html=1;hachureGap=4;fontFamily=Architects Daughter;fontSource=https://fonts.googleapis.com/css?family=Architects+Daughter;strokeColor=#000000;container=0;" vertex="1" parent="1">
          <mxGeometry x="500.5" y="737" width="10" height="50" as="geometry" />
        </mxCell>
        <mxCell id="4o3jKFfFOQzMSp_FgS3m-99" value="" style="line;strokeWidth=2;html=1;perimeter=backbonePerimeter;points=[];outlineConnect=0;hachureGap=4;fontFamily=Architects Daughter;fontSource=https://fonts.googleapis.com/css?family=Architects+Daughter;strokeColor=#000000;container=0;" vertex="1" parent="1">
          <mxGeometry x="400" y="826" width="55" height="10" as="geometry" />
        </mxCell>
        <mxCell id="4o3jKFfFOQzMSp_FgS3m-95" value="" style="line;strokeWidth=2;html=1;perimeter=backbonePerimeter;points=[];outlineConnect=0;hachureGap=4;fontFamily=Architects Daughter;fontSource=https://fonts.googleapis.com/css?family=Architects+Daughter;strokeColor=#000000;container=0;" vertex="1" parent="1">
          <mxGeometry x="555" y="826" width="55" height="10" as="geometry" />
        </mxCell>
        <mxCell id="4o3jKFfFOQzMSp_FgS3m-84" value="" style="line;strokeWidth=2;direction=south;html=1;hachureGap=4;fontFamily=Architects Daughter;fontSource=https://fonts.googleapis.com/css?family=Architects+Daughter;strokeColor=#000000;container=0;" vertex="1" parent="1">
          <mxGeometry x="395" y="831" width="10" height="69" as="geometry" />
        </mxCell>
        <mxCell id="4o3jKFfFOQzMSp_FgS3m-87" value="" style="line;strokeWidth=2;direction=south;html=1;hachureGap=4;fontFamily=Architects Daughter;fontSource=https://fonts.googleapis.com/css?family=Architects+Daughter;strokeColor=#000000;container=0;" vertex="1" parent="1">
          <mxGeometry x="605" y="831" width="10" height="129" as="geometry" />
        </mxCell>
        <mxCell id="4o3jKFfFOQzMSp_FgS3m-85" value="" style="line;strokeWidth=2;direction=south;html=1;hachureGap=4;fontFamily=Architects Daughter;fontSource=https://fonts.googleapis.com/css?family=Architects+Daughter;strokeColor=#000000;container=0;" vertex="1" parent="1">
          <mxGeometry x="397" y="930" width="10" height="30" as="geometry" />
        </mxCell>
        <mxCell id="4o3jKFfFOQzMSp_FgS3m-96" value="" style="line;strokeWidth=2;html=1;perimeter=backbonePerimeter;points=[];outlineConnect=0;hachureGap=4;fontFamily=Architects Daughter;fontSource=https://fonts.googleapis.com/css?family=Architects+Daughter;strokeColor=#000000;container=0;" vertex="1" parent="1">
          <mxGeometry x="400" y="952" width="210" height="10" as="geometry" />
        </mxCell>
        <mxCell id="4o3jKFfFOQzMSp_FgS3m-86" value="" style="line;strokeWidth=2;direction=south;html=1;hachureGap=4;fontFamily=Architects Daughter;fontSource=https://fonts.googleapis.com/css?family=Architects+Daughter;strokeColor=#000000;container=0;" vertex="1" parent="1">
          <mxGeometry x="501" y="957" width="10" height="33" as="geometry" />
        </mxCell>
        <mxCell id="4o3jKFfFOQzMSp_FgS3m-98" value="" style="line;strokeWidth=2;html=1;perimeter=backbonePerimeter;points=[];outlineConnect=0;hachureGap=4;fontFamily=Architects Daughter;fontSource=https://fonts.googleapis.com/css?family=Architects+Daughter;strokeColor=#000000;container=0;" vertex="1" parent="1">
          <mxGeometry x="400" y="1035" width="60" height="10" as="geometry" />
        </mxCell>
        <mxCell id="4o3jKFfFOQzMSp_FgS3m-97" value="" style="line;strokeWidth=2;html=1;perimeter=backbonePerimeter;points=[];outlineConnect=0;hachureGap=4;fontFamily=Architects Daughter;fontSource=https://fonts.googleapis.com/css?family=Architects+Daughter;strokeColor=#000000;container=0;" vertex="1" parent="1">
          <mxGeometry x="556" y="1035" width="54" height="10" as="geometry" />
        </mxCell>
        <mxCell id="4o3jKFfFOQzMSp_FgS3m-89" value="" style="line;strokeWidth=2;direction=south;html=1;hachureGap=4;fontFamily=Architects Daughter;fontSource=https://fonts.googleapis.com/css?family=Architects+Daughter;strokeColor=#000000;container=0;" vertex="1" parent="1">
          <mxGeometry x="395" y="1040" width="10" height="70" as="geometry" />
        </mxCell>
        <mxCell id="4o3jKFfFOQzMSp_FgS3m-90" value="" style="line;strokeWidth=2;direction=south;html=1;hachureGap=4;fontFamily=Architects Daughter;fontSource=https://fonts.googleapis.com/css?family=Architects+Daughter;strokeColor=#000000;container=0;" vertex="1" parent="1">
          <mxGeometry x="605" y="1040" width="10" height="160" as="geometry" />
        </mxCell>
        <mxCell id="4o3jKFfFOQzMSp_FgS3m-91" value="" style="line;strokeWidth=2;direction=south;html=1;hachureGap=4;fontFamily=Architects Daughter;fontSource=https://fonts.googleapis.com/css?family=Architects+Daughter;strokeColor=#000000;container=0;" vertex="1" parent="1">
          <mxGeometry x="397" y="1160" width="10" height="40" as="geometry" />
        </mxCell>
        <mxCell id="4o3jKFfFOQzMSp_FgS3m-101" value="" style="line;strokeWidth=2;html=1;perimeter=backbonePerimeter;points=[];outlineConnect=0;hachureGap=4;fontFamily=Architects Daughter;fontSource=https://fonts.googleapis.com/css?family=Architects+Daughter;strokeColor=#000000;container=0;" vertex="1" parent="1">
          <mxGeometry x="400" y="1192" width="210" height="10" as="geometry" />
        </mxCell>
        <mxCell id="4o3jKFfFOQzMSp_FgS3m-104" value="" style="line;strokeWidth=2;direction=south;html=1;hachureGap=4;fontFamily=Architects Daughter;fontSource=https://fonts.googleapis.com/css?family=Architects+Daughter;strokeColor=#000000;container=0;" vertex="1" parent="1">
          <mxGeometry x="501" y="1197" width="10" height="43" as="geometry" />
        </mxCell>
        <mxCell id="4o3jKFfFOQzMSp_FgS3m-100" value="" style="line;strokeWidth=2;html=1;perimeter=backbonePerimeter;points=[];outlineConnect=0;hachureGap=4;fontFamily=Architects Daughter;fontSource=https://fonts.googleapis.com/css?family=Architects+Daughter;strokeColor=#000000;container=0;" vertex="1" parent="1">
          <mxGeometry x="503" y="1236" width="237" height="10" as="geometry" />
        </mxCell>
        <mxCell id="4o3jKFfFOQzMSp_FgS3m-127" value="&lt;b&gt;&lt;font style=&quot;font-size: 13px;&quot; color=&quot;#000000&quot; face=&quot;Comic Sans MS&quot;&gt;V&lt;/font&gt;&lt;/b&gt;" style="text;strokeColor=none;align=center;fillColor=none;html=1;verticalAlign=middle;whiteSpace=wrap;rounded=0;fontFamily=Architects Daughter;fontSource=https://fonts.googleapis.com/css?family=Architects+Daughter;container=0;" vertex="1" parent="1">
          <mxGeometry x="474" y="439" width="60" height="30" as="geometry" />
        </mxCell>
        <mxCell id="4o3jKFfFOQzMSp_FgS3m-119" value="&lt;b&gt;&lt;font style=&quot;font-size: 13px;&quot; color=&quot;#000000&quot; face=&quot;Comic Sans MS&quot;&gt;F&lt;/font&gt;&lt;/b&gt;" style="text;strokeColor=none;align=center;fillColor=none;html=1;verticalAlign=middle;whiteSpace=wrap;rounded=0;fontFamily=Architects Daughter;fontSource=https://fonts.googleapis.com/css?family=Architects+Daughter;container=0;" vertex="1" parent="1">
          <mxGeometry x="713" y="439" width="60" height="30" as="geometry" />
        </mxCell>
        <mxCell id="4o3jKFfFOQzMSp_FgS3m-120" value="&lt;b&gt;&lt;font style=&quot;font-size: 13px;&quot; color=&quot;#000000&quot; face=&quot;Comic Sans MS&quot;&gt;V&lt;/font&gt;&lt;/b&gt;" style="text;strokeColor=none;align=center;fillColor=none;html=1;verticalAlign=middle;whiteSpace=wrap;rounded=0;fontFamily=Architects Daughter;fontSource=https://fonts.googleapis.com/css?family=Architects+Daughter;container=0;" vertex="1" parent="1">
          <mxGeometry x="372" y="597" width="60" height="30" as="geometry" />
        </mxCell>
        <mxCell id="4o3jKFfFOQzMSp_FgS3m-118" value="&lt;b&gt;&lt;font style=&quot;font-size: 13px;&quot; color=&quot;#000000&quot; face=&quot;Comic Sans MS&quot;&gt;F&lt;/font&gt;&lt;/b&gt;" style="text;strokeColor=none;align=center;fillColor=none;html=1;verticalAlign=middle;whiteSpace=wrap;rounded=0;fontFamily=Architects Daughter;fontSource=https://fonts.googleapis.com/css?family=Architects+Daughter;container=0;" vertex="1" parent="1">
          <mxGeometry x="575" y="598" width="60" height="30" as="geometry" />
        </mxCell>
        <mxCell id="4o3jKFfFOQzMSp_FgS3m-121" value="&lt;b&gt;&lt;font style=&quot;font-size: 13px;&quot; color=&quot;#000000&quot; face=&quot;Comic Sans MS&quot;&gt;V&lt;/font&gt;&lt;/b&gt;" style="text;strokeColor=none;align=center;fillColor=none;html=1;verticalAlign=middle;whiteSpace=wrap;rounded=0;fontFamily=Architects Daughter;fontSource=https://fonts.googleapis.com/css?family=Architects+Daughter;container=0;" vertex="1" parent="1">
          <mxGeometry x="373" y="808" width="60" height="30" as="geometry" />
        </mxCell>
        <mxCell id="4o3jKFfFOQzMSp_FgS3m-113" value="&lt;b&gt;&lt;font style=&quot;font-size: 13px;&quot; color=&quot;#000000&quot; face=&quot;Comic Sans MS&quot;&gt;F&lt;/font&gt;&lt;/b&gt;" style="text;strokeColor=none;align=center;fillColor=none;html=1;verticalAlign=middle;whiteSpace=wrap;rounded=0;fontFamily=Architects Daughter;fontSource=https%3A%2F%2Ffonts.googleapis.com%2Fcss%3Ffamily%3DArchitects%2BDaughter;container=0;" vertex="1" parent="1">
          <mxGeometry x="577" y="809" width="60" height="30" as="geometry" />
        </mxCell>
        <mxCell id="4o3jKFfFOQzMSp_FgS3m-128" value="&lt;b&gt;&lt;font style=&quot;font-size: 13px;&quot; color=&quot;#000000&quot; face=&quot;Comic Sans MS&quot;&gt;V&lt;/font&gt;&lt;/b&gt;" style="text;strokeColor=none;align=center;fillColor=none;html=1;verticalAlign=middle;whiteSpace=wrap;rounded=0;fontFamily=Architects Daughter;fontSource=https://fonts.googleapis.com/css?family=Architects+Daughter;container=0;" vertex="1" parent="1">
          <mxGeometry x="373" y="1017" width="60" height="30" as="geometry" />
        </mxCell>
        <mxCell id="4o3jKFfFOQzMSp_FgS3m-114" value="&lt;b&gt;&lt;font style=&quot;font-size: 13px;&quot; color=&quot;#000000&quot; face=&quot;Comic Sans MS&quot;&gt;F&lt;/font&gt;&lt;/b&gt;" style="text;strokeColor=none;align=center;fillColor=none;html=1;verticalAlign=middle;whiteSpace=wrap;rounded=0;fontFamily=Architects Daughter;fontSource=https://fonts.googleapis.com/css?family=Architects+Daughter;container=0;" vertex="1" parent="1">
          <mxGeometry x="578" y="1017" width="60" height="30" as="geometry" />
        </mxCell>
        <mxCell id="AJ5_jYrUr9q8fk18aoDG-10" value="" style="shape=trapezoid;perimeter=trapezoidPerimeter;whiteSpace=wrap;html=1;fixedSize=1;rounded=0;labelBackgroundColor=none;strokeColor=#121211;strokeWidth=2;align=center;verticalAlign=middle;fontFamily=Helvetica;fontSize=12;fontColor=default;fillColor=#d5e8d4;direction=west;container=0;" parent="1" vertex="1">
          <mxGeometry x="555" y="330" width="130" height="40" as="geometry">
            <mxRectangle x="-1020" y="-650" width="50" height="40" as="alternateBounds" />
          </mxGeometry>
        </mxCell>
        <mxCell id="AJ5_jYrUr9q8fk18aoDG-11" value="&lt;font color=&quot;#000000&quot; size=&quot;1&quot; face=&quot;Comic Sans MS&quot;&gt;&lt;b style=&quot;font-size: 15px;&quot;&gt;num&lt;/b&gt;&lt;/font&gt;" style="text;strokeColor=none;align=center;fillColor=none;html=1;verticalAlign=middle;whiteSpace=wrap;rounded=0;fontFamily=Architects Daughter;fontSource=https%3A%2F%2Ffonts.googleapis.com%2Fcss%3Ffamily%3DArchitects%2BDaughter;container=0;" parent="1" vertex="1">
          <mxGeometry x="590" y="333" width="60" height="30" as="geometry" />
        </mxCell>
        <mxCell id="AJ5_jYrUr9q8fk18aoDG-5" value="" style="ellipse;whiteSpace=wrap;html=1;aspect=fixed;rounded=0;labelBackgroundColor=none;strokeColor=#0F140C;strokeWidth=3;align=center;verticalAlign=middle;fontFamily=Helvetica;fontSize=12;fontColor=default;fillColor=#d5e8d4;container=0;" parent="1" vertex="1">
          <mxGeometry x="-70" y="330" width="200" height="200" as="geometry" />
        </mxCell>
        <mxCell id="AJ5_jYrUr9q8fk18aoDG-6" value="" style="endArrow=none;html=1;rounded=0;strokeColor=#0F140C;fontFamily=Helvetica;fontSize=12;fontColor=default;fillColor=#B2C9AB;strokeWidth=2;" parent="1" edge="1">
          <mxGeometry width="50" height="50" relative="1" as="geometry">
            <mxPoint x="122.00000000000003" y="386" as="sourcePoint" />
            <mxPoint x="-62" y="386" as="targetPoint" />
          </mxGeometry>
        </mxCell>
        <mxCell id="AJ5_jYrUr9q8fk18aoDG-7" value="" style="endArrow=none;html=1;rounded=0;strokeColor=#0F140C;fontFamily=Helvetica;fontSize=12;fontColor=default;fillColor=#B2C9AB;exitX=0.264;exitY=0.952;exitDx=0;exitDy=0;exitPerimeter=0;strokeWidth=2;" parent="1" source="AJ5_jYrUr9q8fk18aoDG-5" edge="1">
          <mxGeometry width="50" height="50" relative="1" as="geometry">
            <mxPoint x="-22" y="450" as="sourcePoint" />
            <mxPoint x="-14.000000000000028" y="386" as="targetPoint" />
          </mxGeometry>
        </mxCell>
        <mxCell id="AJ5_jYrUr9q8fk18aoDG-8" value="" style="endArrow=none;html=1;rounded=0;strokeColor=#0F140C;fontFamily=Helvetica;fontSize=12;fontColor=default;fillColor=#B2C9AB;exitX=0.728;exitY=0.948;exitDx=0;exitDy=0;exitPerimeter=0;strokeWidth=2;" parent="1" source="AJ5_jYrUr9q8fk18aoDG-5" edge="1">
          <mxGeometry width="50" height="50" relative="1" as="geometry">
            <mxPoint x="50" y="466" as="sourcePoint" />
            <mxPoint x="75.60000000000002" y="386" as="targetPoint" />
          </mxGeometry>
        </mxCell>
        <mxCell id="AJ5_jYrUr9q8fk18aoDG-13" value="&lt;b&gt;&lt;font style=&quot;font-size: 15px;&quot; color=&quot;#000000&quot; face=&quot;Comic Sans MS&quot;&gt;x = 0&lt;/font&gt;&lt;/b&gt;" style="text;strokeColor=none;align=center;fillColor=none;html=1;verticalAlign=middle;whiteSpace=wrap;rounded=0;fontFamily=Architects Daughter;fontSource=https%3A%2F%2Ffonts.googleapis.com%2Fcss%3Ffamily%3DArchitects%2BDaughter;container=0;" parent="1" vertex="1">
          <mxGeometry x="-68" y="430" width="50" height="20" as="geometry" />
        </mxCell>
        <mxCell id="AJ5_jYrUr9q8fk18aoDG-14" value="&lt;b&gt;&lt;font style=&quot;font-size: 15px;&quot; color=&quot;#000000&quot; face=&quot;Comic Sans MS&quot;&gt;x &amp;lt; 7&lt;/font&gt;&lt;/b&gt;" style="text;strokeColor=none;align=center;fillColor=none;html=1;verticalAlign=middle;whiteSpace=wrap;rounded=0;fontFamily=Architects Daughter;fontSource=https://fonts.googleapis.com/css?family=Architects+Daughter;container=0;" parent="1" vertex="1">
          <mxGeometry x="4" y="430" width="50" height="20" as="geometry" />
        </mxCell>
        <mxCell id="AJ5_jYrUr9q8fk18aoDG-16" style="edgeStyle=orthogonalEdgeStyle;rounded=0;sketch=1;hachureGap=4;jiggle=2;curveFitting=1;orthogonalLoop=1;jettySize=auto;html=1;exitX=0.5;exitY=1;exitDx=0;exitDy=0;fontFamily=Architects Daughter;fontSource=https%3A%2F%2Ffonts.googleapis.com%2Fcss%3Ffamily%3DArchitects%2BDaughter;" parent="1" source="AJ5_jYrUr9q8fk18aoDG-14" target="AJ5_jYrUr9q8fk18aoDG-14" edge="1">
          <mxGeometry relative="1" as="geometry" />
        </mxCell>
        <mxCell id="AJ5_jYrUr9q8fk18aoDG-15" value="&lt;b&gt;&lt;font style=&quot;font-size: 15px;&quot; color=&quot;#000000&quot; face=&quot;Comic Sans MS&quot;&gt;x++&lt;/font&gt;&lt;/b&gt;" style="text;strokeColor=none;align=center;fillColor=none;html=1;verticalAlign=middle;whiteSpace=wrap;rounded=0;fontFamily=Architects Daughter;fontSource=https://fonts.googleapis.com/css?family=Architects+Daughter;container=0;" parent="1" vertex="1">
          <mxGeometry x="74" y="430" width="50" height="20" as="geometry" />
        </mxCell>
        <mxCell id="AJ5_jYrUr9q8fk18aoDG-17" value="&lt;b&gt;&lt;font style=&quot;font-size: 18px;&quot; color=&quot;#000000&quot; face=&quot;Comic Sans MS&quot;&gt;x&lt;/font&gt;&lt;/b&gt;" style="text;strokeColor=none;align=center;fillColor=none;html=1;verticalAlign=middle;whiteSpace=wrap;rounded=0;fontFamily=Architects Daughter;fontSource=https://fonts.googleapis.com/css?family=Architects+Daughter;container=0;" parent="1" vertex="1">
          <mxGeometry x="10" y="350" width="40" height="30" as="geometry" />
        </mxCell>
        <mxCell id="AJ5_jYrUr9q8fk18aoDG-19" value="" style="rhombus;whiteSpace=wrap;html=1;rounded=0;labelBackgroundColor=none;strokeColor=#0F140C;strokeWidth=2;align=center;verticalAlign=middle;fontFamily=Helvetica;fontSize=12;fontColor=default;fillColor=#d5e8d4;container=0;" parent="1" vertex="1">
          <mxGeometry x="570" y="412" width="100" height="100" as="geometry" />
        </mxCell>
        <mxCell id="AJ5_jYrUr9q8fk18aoDG-20" value="&lt;b&gt;&lt;font color=&quot;#000000&quot; style=&quot;font-size: 14px;&quot; face=&quot;Comic Sans MS&quot;&gt;num % 2&lt;/font&gt;&lt;/b&gt;&lt;div&gt;&lt;b&gt;&lt;font color=&quot;#000000&quot; style=&quot;font-size: 14px;&quot; face=&quot;Comic Sans MS&quot;&gt;!=&lt;/font&gt;&lt;/b&gt;&lt;/div&gt;&lt;div&gt;&lt;b&gt;&lt;font color=&quot;#000000&quot; style=&quot;font-size: 14px;&quot; face=&quot;Comic Sans MS&quot;&gt;0&lt;/font&gt;&lt;/b&gt;&lt;/div&gt;" style="text;strokeColor=none;align=center;fillColor=none;html=1;verticalAlign=middle;whiteSpace=wrap;rounded=0;fontFamily=Architects Daughter;fontSource=https%3A%2F%2Ffonts.googleapis.com%2Fcss%3Ffamily%3DArchitects%2BDaughter;container=0;" parent="1" vertex="1">
          <mxGeometry x="580" y="444" width="80" height="50" as="geometry" />
        </mxCell>
        <mxCell id="AJ5_jYrUr9q8fk18aoDG-27" value="" style="rounded=0;whiteSpace=wrap;html=1;labelBackgroundColor=none;strokeColor=#0f100e;strokeWidth=2;align=center;verticalAlign=middle;fontFamily=Helvetica;fontSize=12;fontColor=default;fillColor=#d5e8d4;container=0;" parent="1" vertex="1">
          <mxGeometry x="446" y="512" width="110" height="30" as="geometry" />
        </mxCell>
        <mxCell id="AJ5_jYrUr9q8fk18aoDG-28" value="&lt;b&gt;&lt;font color=&quot;#000000&quot; style=&quot;font-size: 14px;&quot; face=&quot;Comic Sans MS&quot;&gt;con_impar++&lt;/font&gt;&lt;/b&gt;" style="text;strokeColor=none;align=center;fillColor=none;html=1;verticalAlign=middle;whiteSpace=wrap;rounded=0;fontFamily=Architects Daughter;fontSource=https://fonts.googleapis.com/css?family=Architects+Daughter;container=0;" parent="1" vertex="1">
          <mxGeometry x="451" y="517" width="100" height="20" as="geometry" />
        </mxCell>
        <mxCell id="AJ5_jYrUr9q8fk18aoDG-75" style="edgeStyle=orthogonalEdgeStyle;rounded=0;sketch=1;hachureGap=4;jiggle=2;curveFitting=1;orthogonalLoop=1;jettySize=auto;html=1;exitX=0.5;exitY=1;exitDx=0;exitDy=0;fontFamily=Architects Daughter;fontSource=https%3A%2F%2Ffonts.googleapis.com%2Fcss%3Ffamily%3DArchitects%2BDaughter;" parent="1" source="AJ5_jYrUr9q8fk18aoDG-28" target="AJ5_jYrUr9q8fk18aoDG-28" edge="1">
          <mxGeometry relative="1" as="geometry" />
        </mxCell>
        <mxCell id="4o3jKFfFOQzMSp_FgS3m-2" value="" style="rhombus;whiteSpace=wrap;html=1;rounded=0;labelBackgroundColor=none;strokeColor=#0F140C;strokeWidth=2;align=center;verticalAlign=middle;fontFamily=Helvetica;fontSize=12;fontColor=default;fillColor=#d5e8d4;container=0;" vertex="1" parent="1">
          <mxGeometry x="455" y="570" width="100" height="100" as="geometry" />
        </mxCell>
        <mxCell id="4o3jKFfFOQzMSp_FgS3m-3" value="&lt;font face=&quot;Comic Sans MS&quot; color=&quot;#000000&quot;&gt;&lt;span style=&quot;font-size: 14px;&quot;&gt;&lt;b&gt;con_impar&lt;/b&gt;&lt;/span&gt;&lt;/font&gt;&lt;div&gt;&lt;font face=&quot;Comic Sans MS&quot; color=&quot;#000000&quot;&gt;&lt;span style=&quot;font-size: 14px;&quot;&gt;&lt;b&gt;==&lt;/b&gt;&lt;/span&gt;&lt;/font&gt;&lt;/div&gt;&lt;div&gt;&lt;font face=&quot;Comic Sans MS&quot; color=&quot;#000000&quot;&gt;&lt;span style=&quot;font-size: 14px;&quot;&gt;&lt;b&gt;1&lt;/b&gt;&lt;/span&gt;&lt;/font&gt;&lt;/div&gt;" style="text;strokeColor=none;align=center;fillColor=none;html=1;verticalAlign=middle;whiteSpace=wrap;rounded=0;fontFamily=Architects Daughter;fontSource=https%3A%2F%2Ffonts.googleapis.com%2Fcss%3Ffamily%3DArchitects%2BDaughter;container=0;" vertex="1" parent="1">
          <mxGeometry x="465" y="602" width="80" height="50" as="geometry" />
        </mxCell>
        <mxCell id="4o3jKFfFOQzMSp_FgS3m-5" value="" style="rounded=0;whiteSpace=wrap;html=1;labelBackgroundColor=none;strokeColor=#0f100e;strokeWidth=2;align=center;verticalAlign=middle;fontFamily=Helvetica;fontSize=12;fontColor=default;fillColor=#d5e8d4;container=0;" vertex="1" parent="1">
          <mxGeometry x="329" y="680" width="170" height="30" as="geometry" />
        </mxCell>
        <mxCell id="4o3jKFfFOQzMSp_FgS3m-6" value="&lt;b&gt;&lt;font color=&quot;#000000&quot; style=&quot;font-size: 14px;&quot; face=&quot;Comic Sans MS&quot;&gt;primer_impar = num&lt;/font&gt;&lt;/b&gt;" style="text;strokeColor=none;align=center;fillColor=none;html=1;verticalAlign=middle;whiteSpace=wrap;rounded=0;fontFamily=Architects Daughter;fontSource=https://fonts.googleapis.com/css?family=Architects+Daughter;container=0;" vertex="1" parent="1">
          <mxGeometry x="339" y="685" width="150" height="20" as="geometry" />
        </mxCell>
        <mxCell id="4o3jKFfFOQzMSp_FgS3m-9" value="" style="rhombus;whiteSpace=wrap;html=1;rounded=0;labelBackgroundColor=none;strokeColor=#0F140C;strokeWidth=2;align=center;verticalAlign=middle;fontFamily=Helvetica;fontSize=12;fontColor=default;fillColor=#d5e8d4;container=0;" vertex="1" parent="1">
          <mxGeometry x="456" y="781" width="100" height="100" as="geometry" />
        </mxCell>
        <mxCell id="4o3jKFfFOQzMSp_FgS3m-10" value="&lt;font face=&quot;Comic Sans MS&quot; color=&quot;#000000&quot;&gt;&lt;span style=&quot;font-size: 14px;&quot;&gt;&lt;b&gt;con_impar&lt;/b&gt;&lt;/span&gt;&lt;/font&gt;&lt;div&gt;&lt;font face=&quot;Comic Sans MS&quot; color=&quot;#000000&quot;&gt;&lt;span style=&quot;font-size: 14px;&quot;&gt;&lt;b&gt;==&lt;/b&gt;&lt;/span&gt;&lt;/font&gt;&lt;/div&gt;&lt;div&gt;&lt;font face=&quot;Comic Sans MS&quot; color=&quot;#000000&quot;&gt;&lt;span style=&quot;font-size: 14px;&quot;&gt;&lt;b&gt;2&lt;/b&gt;&lt;/span&gt;&lt;/font&gt;&lt;/div&gt;" style="text;strokeColor=none;align=center;fillColor=none;html=1;verticalAlign=middle;whiteSpace=wrap;rounded=0;fontFamily=Architects Daughter;fontSource=https://fonts.googleapis.com/css?family=Architects+Daughter;container=0;" vertex="1" parent="1">
          <mxGeometry x="466" y="813" width="80" height="50" as="geometry" />
        </mxCell>
        <mxCell id="4o3jKFfFOQzMSp_FgS3m-14" value="" style="rounded=0;whiteSpace=wrap;html=1;labelBackgroundColor=none;strokeColor=#0f100e;strokeWidth=2;align=center;verticalAlign=middle;fontFamily=Helvetica;fontSize=12;fontColor=default;fillColor=#d5e8d4;container=0;aspect=fixed;" vertex="1" parent="1">
          <mxGeometry x="321.5" y="900" width="170" height="30" as="geometry" />
        </mxCell>
        <mxCell id="4o3jKFfFOQzMSp_FgS3m-15" value="&lt;b&gt;&lt;font color=&quot;#000000&quot; style=&quot;font-size: 14px;&quot; face=&quot;Comic Sans MS&quot;&gt;primer_impar = num&lt;/font&gt;&lt;/b&gt;" style="text;strokeColor=none;align=center;fillColor=none;html=1;verticalAlign=middle;whiteSpace=wrap;rounded=0;fontFamily=Architects Daughter;fontSource=https://fonts.googleapis.com/css?family=Architects+Daughter;container=0;aspect=fixed;" vertex="1" parent="1">
          <mxGeometry x="331.5" y="905" width="150" height="20" as="geometry" />
        </mxCell>
        <mxCell id="4o3jKFfFOQzMSp_FgS3m-21" value="" style="rhombus;whiteSpace=wrap;html=1;rounded=0;labelBackgroundColor=none;strokeColor=#0F140C;strokeWidth=2;align=center;verticalAlign=middle;fontFamily=Helvetica;fontSize=12;fontColor=default;fillColor=#d5e8d4;container=0;" vertex="1" parent="1">
          <mxGeometry x="456" y="990" width="100" height="100" as="geometry" />
        </mxCell>
        <mxCell id="4o3jKFfFOQzMSp_FgS3m-22" value="&lt;font face=&quot;Comic Sans MS&quot; color=&quot;#000000&quot;&gt;&lt;span style=&quot;font-size: 14px;&quot;&gt;&lt;b&gt;con_impar&lt;/b&gt;&lt;/span&gt;&lt;/font&gt;&lt;div&gt;&lt;font face=&quot;Comic Sans MS&quot; color=&quot;#000000&quot;&gt;&lt;span style=&quot;font-size: 14px;&quot;&gt;&lt;b&gt;&amp;gt;=&lt;/b&gt;&lt;/span&gt;&lt;/font&gt;&lt;/div&gt;&lt;div&gt;&lt;font face=&quot;Comic Sans MS&quot; color=&quot;#000000&quot;&gt;&lt;span style=&quot;font-size: 14px;&quot;&gt;&lt;b&gt;3&lt;/b&gt;&lt;/span&gt;&lt;/font&gt;&lt;/div&gt;" style="text;strokeColor=none;align=center;fillColor=none;html=1;verticalAlign=middle;whiteSpace=wrap;rounded=0;fontFamily=Architects Daughter;fontSource=https://fonts.googleapis.com/css?family=Architects+Daughter;container=0;" vertex="1" parent="1">
          <mxGeometry x="466" y="1022" width="80" height="50" as="geometry" />
        </mxCell>
        <mxCell id="4o3jKFfFOQzMSp_FgS3m-74" value="" style="rounded=0;whiteSpace=wrap;html=1;labelBackgroundColor=none;strokeColor=#0f100e;strokeWidth=2;align=center;verticalAlign=middle;fontFamily=Helvetica;fontSize=12;fontColor=default;fillColor=#d5e8d4;container=0;" vertex="1" parent="1">
          <mxGeometry x="280" y="1110" width="240" height="50" as="geometry" />
        </mxCell>
        <mxCell id="4o3jKFfFOQzMSp_FgS3m-79" value="&lt;b&gt;&lt;font color=&quot;#000000&quot; style=&quot;font-size: 14px;&quot; face=&quot;Comic Sans MS&quot;&gt;anteultimo_impar = ultimo_impar&lt;/font&gt;&lt;/b&gt;&lt;div&gt;&lt;b&gt;&lt;font color=&quot;#000000&quot; style=&quot;font-size: 14px;&quot; face=&quot;Comic Sans MS&quot;&gt;ultimo_impar = num&lt;/font&gt;&lt;/b&gt;&lt;/div&gt;" style="text;strokeColor=none;align=center;fillColor=none;html=1;verticalAlign=middle;whiteSpace=wrap;rounded=0;fontFamily=Architects Daughter;fontSource=https://fonts.googleapis.com/css?family=Architects+Daughter;container=0;" vertex="1" parent="1">
          <mxGeometry x="280" y="1115" width="237.45" height="40" as="geometry" />
        </mxCell>
        <mxCell id="4o3jKFfFOQzMSp_FgS3m-47" value="" style="shape=trapezoid;perimeter=trapezoidPerimeter;whiteSpace=wrap;html=1;fixedSize=1;rounded=0;labelBackgroundColor=none;strokeColor=#0F140C;strokeWidth=2;align=center;verticalAlign=middle;fontFamily=Helvetica;fontSize=12;fontColor=default;fillColor=#d5e8d4;container=0;" vertex="1" parent="1">
          <mxGeometry x="330" y="1380" width="260" height="50" as="geometry" />
        </mxCell>
        <mxCell id="4o3jKFfFOQzMSp_FgS3m-48" value="&lt;b&gt;&lt;font color=&quot;#000000&quot; style=&quot;font-size: 14px;&quot; face=&quot;Comic Sans MS&quot;&gt;primer_impar, segundo_impar,&amp;nbsp;&lt;/font&gt;&lt;/b&gt;&lt;div&gt;&lt;b&gt;&lt;font color=&quot;#000000&quot; style=&quot;font-size: 14px;&quot; face=&quot;Comic Sans MS&quot;&gt;anteultimo_impar, ultimo_impar&lt;/font&gt;&lt;/b&gt;&lt;/div&gt;" style="text;strokeColor=none;align=center;fillColor=none;html=1;verticalAlign=middle;whiteSpace=wrap;rounded=0;fontFamily=Architects Daughter;fontSource=https://fonts.googleapis.com/css?family=Architects+Daughter;container=0;" vertex="1" parent="1">
          <mxGeometry x="350" y="1385" width="230" height="40" as="geometry" />
        </mxCell>
        <mxCell id="4o3jKFfFOQzMSp_FgS3m-108" value="" style="strokeWidth=2;html=1;shape=mxgraph.flowchart.start_2;whiteSpace=wrap;rounded=0;labelBackgroundColor=none;strokeColor=#000000;align=center;verticalAlign=middle;fontFamily=Helvetica;fontSize=12;fontColor=default;fillColor=#d5e8d4;container=0;" vertex="1" parent="1">
          <mxGeometry x="435" y="1470" width="50" height="60" as="geometry" />
        </mxCell>
        <mxCell id="4o3jKFfFOQzMSp_FgS3m-109" value="&lt;font color=&quot;#000000&quot; size=&quot;1&quot; face=&quot;Comic Sans MS&quot;&gt;&lt;b style=&quot;font-size: 22px;&quot;&gt;F&lt;/b&gt;&lt;/font&gt;" style="text;strokeColor=none;align=center;fillColor=none;html=1;verticalAlign=middle;whiteSpace=wrap;rounded=0;fontFamily=Architects Daughter;fontSource=https://fonts.googleapis.com/css?family=Architects+Daughter;container=0;" vertex="1" parent="1">
          <mxGeometry x="440" y="1480" width="40" height="40" as="geometry" />
        </mxCell>
      </root>
    </mxGraphModel>
  </diagram>
</mxfile>
